<svg width="512" height="512" viewBox="0 0 512 512" xmlns="http://www.w3.org/2000/svg">
  <defs>
    <linearGradient id="bg" x1="0%" y1="0%" x2="100%" y2="100%">
      <stop offset="0%" stop-color="#020617"/> <stop offset="100%" stop-color="#0f172a"/>
    </linearGradient>

    <linearGradient id="barGrad" x1="0%" y1="0%" x2="0%" y2="100%">
      <stop offset="0%" stop-color="#3b82f6"/>
      <stop offset="100%" stop-color="#1e3a8a"/>
    </linearGradient>

    <linearGradient id="arrowGrad" x1="0%" y1="0%" x2="100%" y2="0%">
      <stop offset="0%" stop-color="#10b981"/>
      <stop offset="100%" stop-color="#34d399"/>
    </linearGradient>

    <filter id="glow" x="-20%" y="-20%" width="140%" height="140%">
      <feGaussianBlur stdDeviation="6" result="blur" />
      <feComposite in="SourceGraphic" in2="blur" operator="over"/>
    </filter>
  </defs>

  <rect width="512" height="512" rx="100" fill="url(#bg)"/>

  <g stroke="#ffffff" stroke-width="1.5" opacity="0.04">
    <line x1="70" y1="100" x2="442" y2="100"/>
    <line x1="70" y1="150" x2="442" y2="150"/>
    <line x1="70" y1="200" x2="442" y2="200"/>
    <line x1="70" y1="250" x2="442" y2="250"/>
  </g>

  <g filter="url(#glow)">
    <path d="M 90 260 L 160 160 L 230 190 L 370 80" fill="none" stroke="url(#arrowGrad)" stroke-width="6" stroke-linecap="round" stroke-linejoin="round"/>
    <path d="M 340 80 L 375 75 L 370 110" fill="none" stroke="url(#arrowGrad)" stroke-width="6" stroke-linecap="round" stroke-linejoin="round"/>
    <circle cx="90" cy="260" r="6" fill="#10b981"/>
    <circle cx="160" cy="160" r="5" fill="#10b981"/>
    <circle cx="230" cy="190" r="5" fill="#10b981"/>
    <circle cx="373" cy="77" r="7" fill="#10b981"/>
  </g>

  <g fill="url(#barGrad)">
    <rect x="124" y="140" width="34" height="140" rx="4"/>
    <rect x="166" y="110" width="34" height="170" rx="4"/>
    <rect x="208" y="130" width="34" height="150" rx="4"/>
    <rect x="250" y="90" width="34" height="190" rx="4"/>
    
    <rect x="292" y="170" width="34" height="110" rx="4"/>
    <rect x="334" y="220" width="34" height="60" rx="4"/>
  </g>

  <rect x="306" y="180" width="20" height="24" rx="4" fill="#020617"/>

  <rect x="100" y="295" width="312" height="4" rx="2" fill="#334155"/>
  <rect x="100" y="305" width="200" height="2" rx="1" fill="#334155" opacity="0.5"/>

  <text x="256" y="405" font-family="'Segoe UI', Roboto, Helvetica, Arial, sans-serif" font-size="76" font-weight="900" fill="#ffffff" text-anchor="middle" letter-spacing="8">ASIS</text>
  <text x="256" y="440" font-family="'Segoe UI', Roboto, Helvetica, Arial, sans-serif" font-size="16" font-weight="600" fill="#64748b" text-anchor="middle" letter-spacing="5">XƏRC VƏ RAPOR SİSTEMİ</text>
</svg>